<svg width="800" height="800" viewBox="0 0 800 800" fill="none" xmlns="http://www.w3.org/2000/svg">
<g clip-path="url(#clip0_7_35)">
<mask id="mask0_7_35" style="mask-type:luminance" maskUnits="userSpaceOnUse" x="0" y="0" width="800" height="800">
<path d="M800 0H0V800H800V0Z" fill="white"/>
</mask>
<g mask="url(#mask0_7_35)">
<path d="M133.333 200V633.333C133.333 688.563 178.105 733.333 233.333 733.333H566.667C621.897 733.333 666.667 688.563 666.667 633.333V300C666.667 244.772 621.897 200 566.667 200H133.333ZM133.333 200V166.667" stroke="#493D87" stroke-width="70"/>
<path d="M600 200.001V225.001H625V200.001H600ZM169.036 225.001H600V175.001H169.036V225.001ZM625 200.001V143.535H575V200.001H625ZM520.37 52.7893L160.451 104.206L167.522 153.704L527.44 102.287L520.37 52.7893ZM160.451 104.206C130.546 108.478 108.333 134.09 108.333 164.298H158.333C158.333 158.972 162.25 154.457 167.522 153.704L160.451 104.206ZM625 143.535C625 87.751 575.593 44.9003 520.37 52.7893L527.44 102.287C552.543 98.701 575 118.178 575 143.535H625ZM169.036 175.001C163.125 175.001 158.333 170.209 158.333 164.298H108.333C108.333 197.823 135.511 225.001 169.036 225.001V175.001Z" fill="#493D87"/>
<path d="M510.867 546.1H281.767" stroke="#493D87" stroke-width="50" stroke-linecap="round"/>
<path d="M283.767 425.933C271.033 434.933 342.5 385.1 376.833 360.8C389.367 352 407.233 352 419.767 360.8L512.867 425.933" stroke="#493D87" stroke-width="50" stroke-miterlimit="3.85" stroke-linecap="round"/>
<path d="M306.667 536.1V410.867" stroke="#493D87" stroke-width="50" stroke-linecap="round"/>
<path d="M489.933 539.1V413.867" stroke="#493D87" stroke-width="50" stroke-miterlimit="3.85" stroke-linecap="round"/>
</g>
</g>
<defs>
<clipPath id="clip0_7_35">
<rect width="800" height="800" fill="white"/>
</clipPath>
</defs>
</svg>
