<svg width="801" height="800" viewBox="0 0 801 800" fill="none" xmlns="http://www.w3.org/2000/svg">
<path d="M100.6 333.333C100.6 207.625 100.6 144.772 139.652 105.719C178.705 66.6668 241.558 66.6667 367.266 66.6667H433.933C559.64 66.6667 622.496 66.6668 661.546 105.719C700.6 144.772 700.6 207.625 700.6 333.333V466.667C700.6 592.373 700.6 655.23 661.546 694.28C622.496 733.333 559.64 733.333 433.933 733.333H367.266C241.558 733.333 178.705 733.333 139.652 694.28C100.6 655.23 100.6 592.373 100.6 466.667V333.333Z" stroke="#493D87" stroke-width="50"/>
<path d="M267.267 400H533.933" stroke="#493D87" stroke-width="50" stroke-linecap="round"/>
<path d="M267.267 266.667H533.933" stroke="#493D87" stroke-width="50" stroke-linecap="round"/>
<path d="M267.267 533.333H433.933" stroke="#493D87" stroke-width="50" stroke-linecap="round"/>
</svg>
