<svg width="800" height="801" viewBox="0 0 800 801" fill="none" xmlns="http://www.w3.org/2000/svg">
<path d="M66.6665 400.5C66.6665 243.365 66.6665 164.797 115.482 115.982C164.297 67.1665 242.865 67.1665 400 67.1665C557.133 67.1665 635.703 67.1665 684.516 115.982C733.333 164.797 733.333 243.365 733.333 400.5C733.333 557.633 733.333 636.203 684.516 685.016C635.703 733.833 557.133 733.833 400 733.833C242.865 733.833 164.297 733.833 115.482 685.016C66.6665 636.203 66.6665 557.633 66.6665 400.5Z" stroke="#493D87" stroke-width="68"/>
<path d="M337.5 296.333C337.5 261.816 365.483 233.833 400 233.833C434.517 233.833 462.5 261.816 462.5 296.333C462.5 319.248 450.167 339.283 431.78 350.163C415.933 359.537 400 373.757 400 392.167V433.833" stroke="#493D87" stroke-width="68" stroke-linecap="round"/>
<path d="M400 567.167C418.41 567.167 433.334 552.243 433.334 533.833C433.334 515.424 418.41 500.5 400 500.5C381.591 500.5 366.667 515.424 366.667 533.833C366.667 552.243 381.591 567.167 400 567.167Z" fill="#493D87"/>
</svg>
