<svg width="800" height="801" viewBox="0 0 800 801" fill="none" xmlns="http://www.w3.org/2000/svg">
<path fill-rule="evenodd" clip-rule="evenodd" d="M400 200.506C340.02 130.606 239.792 109.003 164.641 173.011C89.4893 237.019 78.909 344.037 137.926 419.74C186.995 482.68 335.493 615.43 384.163 658.397C389.607 663.203 392.33 665.607 395.507 666.55C398.277 667.373 401.31 667.373 404.083 666.55C407.26 665.607 409.98 663.203 415.427 658.397C464.097 615.43 612.593 482.68 661.663 419.74C720.68 344.037 711.39 236.346 634.947 173.011C558.503 109.677 459.98 130.606 400 200.506Z" stroke="#493D87" stroke-width="66.6667" stroke-linecap="round" stroke-linejoin="round"/>
<path fill-rule="evenodd" clip-rule="evenodd" d="M395.5 206.755C339.494 143.059 245.906 123.373 175.734 181.701C105.561 240.028 95.6813 337.548 150.788 406.532C196.607 463.887 335.267 584.855 380.712 624.009C385.796 628.388 388.338 630.579 391.305 631.438C393.891 632.188 396.723 632.188 399.312 631.438C402.279 630.579 404.819 628.388 409.905 624.009C455.351 584.855 594.009 463.887 639.828 406.532C694.935 337.548 686.26 239.415 614.882 181.701C543.502 123.988 451.506 143.059 395.5 206.755Z" stroke="#493D87" stroke-width="66.6667" stroke-linecap="round" stroke-linejoin="round"/>
</svg>
