<svg width="800" height="800" viewBox="0 0 800 800" fill="none" xmlns="http://www.w3.org/2000/svg">
<path d="M433.333 500V233.333M433.333 500L616.8 604.833C621.869 607.729 627.609 609.242 633.446 609.222C639.283 609.203 645.013 607.65 650.062 604.721C655.111 601.791 659.302 597.587 662.216 592.53C665.13 587.472 666.665 581.737 666.667 575.9V157.433C666.665 151.596 665.13 145.862 662.216 140.804C659.302 135.746 655.111 131.542 650.062 128.612C645.013 125.683 639.283 124.131 633.446 124.111C627.609 124.091 621.869 125.605 616.8 128.5L433.333 233.333M433.333 500H333.333M433.333 233.333H233.333C197.971 233.333 164.057 247.381 139.052 272.386C114.048 297.391 100 331.304 100 366.667C100 402.029 114.048 435.943 139.052 460.948C164.057 485.952 197.971 500 233.333 500M333.333 500V650C333.333 663.261 328.065 675.979 318.689 685.355C309.312 694.732 296.594 700 283.333 700C270.073 700 257.355 694.732 247.978 685.355C238.601 675.979 233.333 663.261 233.333 650V500M333.333 500H233.333" stroke="#493D87" stroke-width="70" stroke-linecap="round" stroke-linejoin="round"/>
</svg>
