<svg width="800" height="800" viewBox="0 0 800 800" fill="none" xmlns="http://www.w3.org/2000/svg">
<path d="M200 366.667C200 272.386 200 225.245 229.289 195.956C258.579 166.667 305.719 166.667 400 166.667H500C594.28 166.667 641.42 166.667 670.71 195.956C700 225.245 700 272.386 700 366.667V533.333C700 627.613 700 674.753 670.71 704.043C641.42 733.333 594.28 733.333 500 733.333H400C305.719 733.333 258.579 733.333 229.289 704.043C200 674.753 200 627.613 200 533.333V366.667Z" stroke="#493D87" stroke-width="70"/>
<path d="M200 633.333C144.772 633.333 100 588.563 100 533.333V333.333C100 207.625 100 144.772 139.052 105.719C178.105 66.6666 240.959 66.6666 366.667 66.6666H500C555.23 66.6666 600 111.438 600 166.667" stroke="#493D87" stroke-width="70"/>
</svg>
