<svg width="800" height="800" viewBox="0 0 800 800" fill="none" xmlns="http://www.w3.org/2000/svg">
<path d="M466.667 708.333H333.334V758.333H466.667V708.333ZM91.667 466.667V333.333H41.667V466.667H91.667ZM708.334 452.097V466.667H758.334V452.097H708.334ZM496.374 153.704L628.334 272.467L661.78 235.302L529.824 116.539L496.374 153.704ZM758.334 452.097C758.334 395.817 758.837 360.183 744.637 328.299L698.964 348.64C707.83 368.55 708.334 391.4 708.334 452.097H758.334ZM628.334 272.467C673.447 313.07 690.097 328.733 698.964 348.64L744.637 328.299C730.437 296.414 703.614 272.951 661.78 235.302L628.334 272.467ZM334.327 91.6667C387.054 91.6667 406.95 92.0527 424.684 98.8577L442.597 52.1767C414.204 41.2807 383.267 41.6667 334.327 41.6667V91.6667ZM529.824 116.539C493.624 83.9594 470.99 63.0714 442.597 52.1767L424.684 98.8577C442.424 105.664 457.384 118.612 496.374 153.704L529.824 116.539ZM333.334 708.333C269.773 708.333 224.617 708.28 190.362 703.673C156.826 699.167 137.504 690.71 123.397 676.603L88.0417 711.96C112.987 736.903 144.619 747.973 183.7 753.23C222.061 758.387 271.186 758.333 333.334 758.333V708.333ZM41.667 466.667C41.667 528.813 41.614 577.94 46.7713 616.3C52.0257 655.38 63.0963 687.013 88.0417 711.96L123.397 676.603C109.29 662.497 100.834 643.173 96.3257 609.64C91.72 575.383 91.667 530.227 91.667 466.667H41.667ZM466.667 758.333C528.814 758.333 577.94 758.387 616.3 753.23C655.38 747.973 687.014 736.903 711.96 711.96L676.604 676.603C662.497 690.71 643.174 699.167 609.64 703.673C575.384 708.28 530.227 708.333 466.667 708.333V758.333ZM708.334 466.667C708.334 530.227 708.28 575.383 703.674 609.64C699.167 643.173 690.71 662.497 676.604 676.603L711.96 711.96C736.904 687.013 747.974 655.38 753.23 616.3C758.387 577.94 758.334 528.813 758.334 466.667H708.334ZM91.667 333.333C91.667 269.773 91.72 224.617 96.3257 190.362C100.834 156.825 109.29 137.504 123.397 123.397L88.0417 88.0414C63.0963 112.987 52.0257 144.618 46.7713 183.699C41.614 222.061 41.667 271.186 41.667 333.333H91.667ZM334.327 41.6667C271.846 41.6667 222.481 41.6141 183.963 46.7691C144.744 52.0181 113.007 63.0767 88.0417 88.0414L123.397 123.397C137.485 109.309 156.866 100.842 190.595 96.3274C225.025 91.7194 270.437 91.6667 334.327 91.6667V41.6667Z" fill="#493D87"/>
<path d="M433.333 83.3333V166.667C433.333 245.234 433.333 284.518 457.74 308.926C482.15 333.333 521.433 333.333 600 333.333H733.333" stroke="#493D87" stroke-width="50"/>
<path d="M201.731 571V425.545H261.816C272.707 425.545 282.105 427.676 290.012 431.938C297.967 436.152 304.099 442.046 308.407 449.622C312.716 457.151 314.87 465.91 314.87 475.901C314.87 485.938 312.669 494.722 308.265 502.25C303.909 509.731 297.683 515.531 289.586 519.651C281.49 523.77 271.878 525.83 260.751 525.83H223.677V498.131H254.217C259.52 498.131 263.947 497.207 267.498 495.361C271.097 493.514 273.819 490.934 275.666 487.619C277.512 484.258 278.436 480.351 278.436 475.901C278.436 471.402 277.512 467.52 275.666 464.253C273.819 460.938 271.097 458.382 267.498 456.582C263.9 454.783 259.473 453.884 254.217 453.884H236.887V571H201.731ZM385.964 571H332.2V425.545H385.893C400.713 425.545 413.474 428.457 424.174 434.281C434.922 440.058 443.208 448.391 449.032 459.281C454.856 470.124 457.768 483.098 457.768 498.202C457.768 513.353 454.856 526.374 449.032 537.264C443.256 548.154 434.993 556.511 424.245 562.335C413.497 568.112 400.737 571 385.964 571ZM367.356 541.028H384.615C392.759 541.028 399.648 539.655 405.282 536.909C410.964 534.116 415.249 529.594 418.137 523.344C421.073 517.046 422.541 508.666 422.541 498.202C422.541 487.738 421.073 479.404 418.137 473.202C415.202 466.952 410.869 462.454 405.14 459.707C399.458 456.914 392.451 455.517 384.118 455.517H367.356V541.028ZM478.294 571V425.545H577.583V454.097H513.45V483.926H571.262V512.548H513.45V571H478.294Z" fill="#493D87"/>
</svg>
