<svg width="800" height="801" viewBox="0 0 800 801" fill="none" xmlns="http://www.w3.org/2000/svg">
<path d="M100 296.167C100 258.83 100 240.161 107.266 225.901C113.658 213.356 123.856 203.158 136.401 196.766C150.661 189.5 169.33 189.5 206.667 189.5H593.333C630.67 189.5 649.34 189.5 663.6 196.766C676.143 203.158 686.343 213.356 692.733 225.901C700 240.161 700 258.83 700 296.167V722.833L589.19 667.427C580.79 663.227 576.59 661.127 572.187 659.647C568.28 658.333 564.257 657.383 560.173 656.81C555.573 656.167 550.877 656.167 541.487 656.167H206.667C169.33 656.167 150.661 656.167 136.401 648.9C123.856 642.51 113.658 632.31 107.266 619.767C100 605.507 100 586.837 100 549.5V296.167Z" stroke="#493D87" stroke-width="70" stroke-linecap="round" stroke-linejoin="round"/>
</svg>
