<svg width="800" height="801" viewBox="0 0 800 801" fill="none" xmlns="http://www.w3.org/2000/svg">
<path d="M433.333 500.5V233.833M433.333 500.5L616.8 605.333C621.869 608.229 627.609 609.742 633.446 609.722C639.283 609.703 645.013 608.15 650.062 605.221C655.111 602.292 659.302 598.088 662.216 593.03C665.13 587.972 666.665 582.237 666.667 576.4V157.933C666.665 152.096 665.13 146.362 662.216 141.304C659.302 136.246 655.111 132.042 650.062 129.112C645.013 126.183 639.283 124.631 633.446 124.611C627.609 124.591 621.869 126.105 616.8 129L433.333 233.833M433.333 500.5H333.333M433.333 233.833H233.333C197.971 233.833 164.057 247.881 139.052 272.886C114.048 297.891 100 331.805 100 367.167C100 402.529 114.048 436.443 139.052 461.448C164.057 486.452 197.971 500.5 233.333 500.5M333.333 500.5V650.5C333.333 663.761 328.065 676.479 318.689 685.855C309.312 695.232 296.594 700.5 283.333 700.5C270.073 700.5 257.355 695.232 247.978 685.855C238.601 676.479 233.333 663.761 233.333 650.5V500.5M333.333 500.5H233.333" stroke="#493D87" stroke-width="70" stroke-linecap="round" stroke-linejoin="round"/>
</svg>
