<svg width="800" height="801" viewBox="0 0 800 801" fill="none" xmlns="http://www.w3.org/2000/svg">
<path d="M400.006 533.833C208.006 533.833 173.994 342.483 167.968 190.715C166.292 148.499 165.454 127.391 181.312 107.861C197.169 88.3312 216.148 85.1288 254.105 78.7245C291.574 72.4028 340.553 67.1665 400.006 67.1665C459.456 67.1665 508.436 72.4028 545.903 78.7245C583.863 85.1288 602.839 88.3312 618.696 107.861C634.556 127.391 633.716 148.499 632.039 190.715C626.016 342.483 592.003 533.833 400.006 533.833Z" stroke="#493D87" stroke-width="68"/>
<path d="M633.332 167.167L664.952 177.707C697.955 188.707 714.455 194.208 723.892 207.303C733.332 220.397 733.332 237.791 733.329 272.578V274.995C733.329 303.687 733.329 318.033 726.422 329.77C719.515 341.507 706.975 348.473 681.895 362.406L583.332 417.166" stroke="#493D87" stroke-width="68"/>
<path d="M166.666 167.167L135.045 177.707C102.043 188.707 85.5423 194.208 76.1047 207.303C66.6667 220.397 66.667 237.791 66.668 272.578V274.995C66.669 303.687 66.6693 318.032 73.5757 329.769C80.4817 341.506 93.0223 348.473 118.103 362.406L216.666 417.166" stroke="#493D87" stroke-width="68"/>
<path d="M400 567.167V633.833" stroke="#493D87" stroke-width="68" stroke-linecap="round"/>
<path d="M516.665 733.833H283.332L294.639 677.297C297.756 661.717 311.436 650.5 327.325 650.5H472.672C488.562 650.5 502.242 661.717 505.359 677.297L516.665 733.833Z" stroke="#493D87" stroke-width="68" stroke-linecap="round" stroke-linejoin="round"/>
<path d="M600 733.833H200" stroke="#493D87" stroke-width="68" stroke-linecap="round"/>
</svg>
