<svg width="801" height="801" viewBox="0 0 801 801" fill="none" xmlns="http://www.w3.org/2000/svg">
<path d="M67.4785 400.5C67.4785 274.792 67.4785 211.938 106.531 172.886C145.584 133.833 208.437 133.833 334.145 133.833H467.479C593.185 133.833 656.042 133.833 695.092 172.886C734.145 211.938 734.145 274.792 734.145 400.5V467.167C734.145 592.873 734.145 655.73 695.092 694.78C656.042 733.833 593.185 733.833 467.479 733.833H334.145C208.437 733.833 145.584 733.833 106.531 694.78C67.4785 655.73 67.4785 592.873 67.4785 467.167V400.5Z" stroke="#493D87" stroke-width="68"/>
<path d="M234.146 133.833V83.8335" stroke="#493D87" stroke-width="68" stroke-linecap="round"/>
<path d="M567.479 133.833V83.8335" stroke="#493D87" stroke-width="68" stroke-linecap="round"/>
<path d="M67.4785 300.5H400.812H734.145" stroke="#493D87" stroke-width="68" stroke-linecap="round"/>
<path d="M353.135 587.8C351.935 591.2 349.935 594.1 347.135 596.5C344.335 598.7 340.935 599.8 336.935 599.8C333.135 599.8 329.835 598.2 327.035 595C324.435 591.8 323.135 588.5 323.135 585.1C323.135 581.7 324.235 577.8 326.435 573.4C328.635 569 331.935 563.7 336.335 557.5C340.935 551.3 345.535 545.3 350.135 539.5C354.735 533.7 360.635 526.3 367.835 517.3C375.035 508.3 381.235 500.3 386.435 493.3C382.035 487.7 375.535 479.6 366.935 469C358.335 458.4 352.135 450.8 348.335 446.2C344.735 441.4 340.535 435.8 335.735 429.4C327.335 418 323.135 410 323.135 405.4C323.135 400.6 324.135 396.7 326.135 393.7C328.335 390.7 332.035 389.2 337.235 389.2C342.435 389.2 347.735 393.1 353.135 400.9L360.935 413.5C375.535 436.5 388.935 456.3 401.135 472.9C413.335 455.7 423.835 440.1 432.635 426.1C441.435 412.1 446.835 403.6 448.835 400.6C453.635 393 458.235 389.2 462.635 389.2C471.235 389.2 475.535 393.5 475.535 402.1C475.535 407.7 470.735 416.6 461.135 428.8C453.135 439.4 444.135 450.6 434.135 462.4C424.135 474 416.935 482.6 412.535 488.2C416.535 493.4 422.435 500.9 430.235 510.7C438.035 520.5 444.235 528.5 448.835 534.7C453.435 540.7 458.335 547.4 463.535 554.8C473.735 569.4 478.835 580.2 478.835 587.2C478.835 591.2 477.735 594.3 475.535 596.5C473.335 598.7 470.035 599.8 465.635 599.8C461.435 599.8 456.835 595.9 451.835 588.1C451.435 587.3 449.735 584.6 446.735 580C443.935 575.4 441.035 570.7 438.035 565.9C435.035 561.1 431.435 555.4 427.235 548.8C417.835 534.4 408.035 520.7 397.835 507.7C378.435 534.5 363.535 561.2 353.135 587.8Z" fill="#493D87"/>
</svg>
