<svg width="801" height="801" viewBox="0 0 801 801" fill="none" xmlns="http://www.w3.org/2000/svg">
<path d="M67.584 400.5C67.584 274.792 67.584 211.938 106.636 172.886C145.689 133.833 208.543 133.833 334.251 133.833H467.584C593.291 133.833 656.147 133.833 695.197 172.886C734.251 211.938 734.251 274.792 734.251 400.5V467.167C734.251 592.873 734.251 655.73 695.197 694.78C656.147 733.833 593.291 733.833 467.584 733.833H334.251C208.543 733.833 145.689 733.833 106.636 694.78C67.584 655.73 67.584 592.873 67.584 467.167V400.5Z" stroke="#493D87" stroke-width="68"/>
<path d="M234.252 133.833V83.8335" stroke="#493D87" stroke-width="68" stroke-linecap="round"/>
<path d="M567.584 133.833V83.8335" stroke="#493D87" stroke-width="68" stroke-linecap="round"/>
<path d="M67.584 300.5H400.917H734.251" stroke="#493D87" stroke-width="68" stroke-linecap="round"/>
<mask id="path-5-outside-1_113_2" maskUnits="userSpaceOnUse" x="228" y="372" width="340" height="234" fill="black">
<rect fill="white" x="228" y="372" width="340" height="234"/>
<path d="M557.299 463.5H238.799V438.65H493.949C483.099 426.4 471.549 407.5 460.349 382.65H480.299C504.799 411.35 530.699 432.35 557.299 446V463.5ZM238.799 514.25H557.299V539.1H302.149C312.999 551.35 324.549 570.25 335.749 595.1H315.799C291.299 566.4 265.399 545.4 238.799 531.75V514.25Z"/>
</mask>
<path d="M557.299 463.5H238.799V438.65H493.949C483.099 426.4 471.549 407.5 460.349 382.65H480.299C504.799 411.35 530.699 432.35 557.299 446V463.5ZM238.799 514.25H557.299V539.1H302.149C312.999 551.35 324.549 570.25 335.749 595.1H315.799C291.299 566.4 265.399 545.4 238.799 531.75V514.25Z" fill="#493D87"/>
<path d="M557.299 463.5V473.5H567.299V463.5H557.299ZM238.799 463.5H228.799V473.5H238.799V463.5ZM238.799 438.65V428.65H228.799V438.65H238.799ZM493.949 438.65V448.65H516.165L501.435 432.02L493.949 438.65ZM460.349 382.65V372.65H444.873L451.232 386.759L460.349 382.65ZM480.299 382.65L487.905 376.157L484.911 372.65H480.299V382.65ZM557.299 446H567.299V439.892L561.865 437.103L557.299 446ZM238.799 514.25V504.25H228.799V514.25H238.799ZM557.299 514.25H567.299V504.25H557.299V514.25ZM557.299 539.1V549.1H567.299V539.1H557.299ZM302.149 539.1V529.1H279.934L294.663 545.73L302.149 539.1ZM335.749 595.1V605.1H351.225L344.866 590.991L335.749 595.1ZM315.799 595.1L308.194 601.593L311.188 605.1H315.799V595.1ZM238.799 531.75H228.799V537.858L234.234 540.647L238.799 531.75ZM557.299 463.5V453.5H238.799V463.5V473.5H557.299V463.5ZM238.799 463.5H248.799V438.65H238.799H228.799V463.5H238.799ZM238.799 438.65V448.65H493.949V438.65V428.65H238.799V438.65ZM493.949 438.65L501.435 432.02C491.506 420.81 480.446 402.903 469.466 378.541L460.349 382.65L451.232 386.759C462.652 412.097 474.692 431.99 486.463 445.28L493.949 438.65ZM460.349 382.65V392.65H480.299V382.65V372.65H460.349V382.65ZM480.299 382.65L472.694 389.143C497.879 418.646 524.771 440.548 552.734 454.897L557.299 446L561.865 437.103C536.628 424.152 511.719 404.054 487.905 376.157L480.299 382.65ZM557.299 446H547.299V463.5H557.299H567.299V446H557.299ZM238.799 514.25V524.25H557.299V514.25V504.25H238.799V514.25ZM557.299 514.25H547.299V539.1H557.299H567.299V514.25H557.299ZM557.299 539.1V529.1H302.149V539.1V549.1H557.299V539.1ZM302.149 539.1L294.663 545.73C304.592 556.94 315.652 574.847 326.632 599.209L335.749 595.1L344.866 590.991C333.446 565.653 321.406 545.76 309.635 532.47L302.149 539.1ZM335.749 595.1V585.1H315.799V595.1V605.1H335.749V595.1ZM315.799 595.1L323.405 588.607C298.219 559.104 271.328 537.202 243.365 522.853L238.799 531.75L234.234 540.647C259.471 553.598 284.379 573.696 308.194 601.593L315.799 595.1ZM238.799 531.75H248.799V514.25H238.799H228.799V531.75H238.799Z" fill="#493D87" mask="url(#path-5-outside-1_113_2)"/>
</svg>
