<svg xmlns="http://www.w3.org/2000/svg" viewBox="0 0 400 485"><defs><style>.cls-1{fill:#9390ad;}.cls-2{fill:#825a0c;}.cls-3{fill:#e4e4f4;}.cls-4{fill:#faad17;}.cls-5{fill:#00549b;}.cls-6{fill:#fff;}.cls-7{fill:#0061a2;}</style></defs><g id="COLOR"><path class="cls-1" d="M178.48,387.24c-5.94,5.77-12.4,11-18.07,17a65.81,65.81,0,0,0-8.81,11.36,35.76,35.76,0,0,0-4.82,14.86c-1.08,10.47,5.16,20.46,12.88,27a72.16,72.16,0,0,0,24.76,13.4,120.13,120.13,0,0,0,26.79,4.92,172.57,172.57,0,0,0,24.7.21,202.28,202.28,0,0,0,26.89-3.27,145.55,145.55,0,0,0,30.79-9.91c19.6-8.64,37.49-22.55,49.36-40.52,12.93-19.56,16.5-44.89,6.23-66.37-4.68-9.8-12.73-17.63-21.6-23.68-8.33-5.67-17.81-9.36-27.26-12.71-21.57-7.66-43.31-14.82-65.08-21.89s-43.39-14-65-21.28S127.17,261.51,106,253.19c-5.09-2-10.18-4-15.22-6.13l2.87,1.21c-9.35-4-18.55-8.4-26.66-14.57l2.43,1.88a55.83,55.83,0,0,1-9.8-9.69l1.88,2.43a52.44,52.44,0,0,1-6.75-11.55l1.2,2.87a56.13,56.13,0,0,1-3.74-13.88L52.6,209a65.93,65.93,0,0,1,.08-17.13L52.26,195a76.87,76.87,0,0,1,5.26-19l-1.21,2.87a82.08,82.08,0,0,1,10.58-18.1L65,163.16A81.78,81.78,0,0,1,79.28,149l-2.43,1.88a103.1,103.1,0,0,1,22.53-13.05L96.52,139a123,123,0,0,1,31.06-8.43l-3.19.43c24.69-3.27,50.08-2.87,74.84-.73q10.83.94,21.6,2.4l-3.19-.43q16.41,2.22,32.64,5.5c10,2,20.07,4.14,29.53,8.06L277,144.61a63,63,0,0,1,13.53,7.66l-2.43-1.87a49.65,49.65,0,0,1,8.9,8.84l-1.87-2.43a41.39,41.39,0,0,1,5,8.49l-1.21-2.87a35.19,35.19,0,0,1,2.38,8.48l-.42-3.19a37.79,37.79,0,0,1,.06,9.91l.43-3.19a30.13,30.13,0,0,1-2.06,7.53l1.21-2.87a29.52,29.52,0,0,1-3.64,6.18l1.88-2.43a34.25,34.25,0,0,1-6.14,6.07l2.43-1.87a48.32,48.32,0,0,1-10.24,5.86l2.87-1.21a76.85,76.85,0,0,1-19.33,5.06l3.19-.43a110.39,110.39,0,0,1-29.11-.06l3.19.43a82,82,0,0,1-20.62-5.27l2.87,1.21a38.76,38.76,0,0,1-8.08-4.45c-2.35-1.73-6.56-1.95-9.25-1.21a12.25,12.25,0,0,0-7.17,5.52,12.1,12.1,0,0,0-1.21,9.24,13.88,13.88,0,0,0,5.52,7.18,39.21,39.21,0,0,0,7.84,4.35,86.42,86.42,0,0,0,12.69,4.46,119.21,119.21,0,0,0,26.79,3.51,112.85,112.85,0,0,0,28.2-2.9c8.29-2,16.75-5.19,23.63-10.31,8-6,14.27-13.64,16.92-23.44a47.11,47.11,0,0,0-5.94-37.12c-9.27-14.38-24.12-23-40.17-27.88a230.49,230.49,0,0,0-23.21-5.43q-12.48-2.44-25.05-4.3c-33.9-5-68.6-7.09-102.72-3.12A136.13,136.13,0,0,0,81.06,120c-12.44,6.21-24.1,14.93-32.74,25.89a93.56,93.56,0,0,0-17.56,34.43,77.84,77.84,0,0,0-.63,37.7,63.24,63.24,0,0,0,19.52,32.32C62.44,261.44,78.17,267.81,93.74,274c30.88,12.33,62.37,23.05,94,33.4s63.32,20.33,94.73,31.22c7.09,2.46,14.27,4.79,21.2,7.69l-2.87-1.21a81.37,81.37,0,0,1,17.66,10L316,353.25a53.62,53.62,0,0,1,9.57,9.47l-1.88-2.43a45.8,45.8,0,0,1,5.49,9.33L328,366.76a48.1,48.1,0,0,1,3.3,12.14l-.43-3.19a55.61,55.61,0,0,1-.06,14.41l.43-3.19a60.6,60.6,0,0,1-4.15,14.95l1.21-2.86a74.15,74.15,0,0,1-9.5,16l1.88-2.43a98.42,98.42,0,0,1-17.42,17.13l2.43-1.88a119.62,119.62,0,0,1-26,15.06l2.87-1.21A136.2,136.2,0,0,1,248,451l3.19-.43c-15.3,2-30.95,2.59-46.27.57l3.19.43A91.84,91.84,0,0,1,185,445.6l2.87,1.21a55.7,55.7,0,0,1-12.18-7l2.42,1.88a39.37,39.37,0,0,1-6.7-6.52l1.87,2.43a24.22,24.22,0,0,1-2.9-4.81l1.21,2.87a18.12,18.12,0,0,1-1.22-4.33l.42,3.19a17.69,17.69,0,0,1,0-4.24l-.43,3.19a21.11,21.11,0,0,1,1.47-5.29l-1.21,2.87a36,36,0,0,1,4.68-7.67l-1.88,2.43c6.38-8.13,14.64-14.47,22-21.63,4.51-4.38,4.72-12.63,0-17a12.24,12.24,0,0,0-17,0Z"/><polygon class="cls-2" points="148.94 21.1 193.6 39.15 285.31 91.7 240.65 73.65 148.94 21.1"/><polygon class="cls-3" points="104.52 89.86 104.56 103.25 104.73 163.22 196.44 215.77 196.27 155.81 196.23 142.42 104.52 89.86"/><polygon class="cls-4" points="196.23 142.42 104.52 89.86 148.94 21.1 240.65 73.65 196.23 142.42"/><polygon class="cls-3" points="196.23 142.42 196.27 155.81 196.44 215.77 209.03 208.61 246.54 187.25 285.53 165.06 285.33 98.22 285.31 91.7 240.65 73.66 196.23 142.42"/><polygon class="cls-5" points="144.1 6.51 197.59 28.44 298.47 86.25 244.99 64.32 144.1 6.51"/><path class="cls-5" d="M244.66,64.13,148.94,9.28a5.86,5.86,0,0,0-7.83,1.89L93.65,84.92c-1.56,2.43-3.55,7.93-1.32,9.78l97.81,57a5.86,5.86,0,0,0,7.83-1.88l43-66a5.85,5.85,0,0,1,7.14-2.22l38.71,15.86c2.82,1.16,7.47-3,8.83-5.74h0a5.71,5.71,0,0,0-3-7.86L245.35,64.47A5.52,5.52,0,0,1,244.66,64.13Z"/><path class="cls-5" d="M211.5,173.6l.08,33.54,24-13.64L235.46,157c0-4.78-2.06-7.63-5.48-7.63a11,11,0,0,0-5.25,1.63C217.54,155.1,211.47,165.45,211.5,173.6Z"/><polygon class="cls-6" points="245.46 148.61 245.51 173.27 274.75 156.69 274.69 132.02 245.46 148.61"/><polygon class="cls-6" points="179.64 163.48 179.62 172.03 179.62 172.74 179.61 178.75 179.6 180.49 167.53 173.62 166.91 173.26 156.27 167.21 156.29 159.46 156.29 158.75 156.31 150.19 157.62 150.94 166.96 156.25 167.58 156.61 179.64 163.48"/><polygon class="cls-6" points="141.86 143.73 141.84 152.29 141.84 153 141.82 159 141.82 160.74 129.75 153.87 129.13 153.52 118.49 147.46 118.5 139.72 118.5 139 118.53 130.44 119.84 131.19 129.17 136.51 129.8 136.86 141.86 143.73"/><path class="cls-6" d="M234.15,118.45c0,.27,0,.53,0,.79.38,6.19,5.1,8.59,10.85,5.31l0,0c.31-.18.61-.36.91-.57,5.3-3.53,9.51-10.79,9.84-17,0-.27,0-.54,0-.81a1.85,1.85,0,0,0,0-.23c-.12-6.25-4.44-8.95-9.92-6.36-.3.13-.59.29-.9.46l-.05,0c-5.91,3.37-10.71,11.47-10.79,18.21A1.69,1.69,0,0,0,234.15,118.45Z"/><polygon class="cls-3" points="141.86 55.53 141.89 62.34 141.98 86.58 159.86 96.83 159.77 72.59 159.75 65.78 141.86 55.53"/><polygon class="cls-3" points="159.75 65.78 159.77 72.59 159.86 96.83 177.86 86.58 177.78 62.44 177.75 55.53 159.75 65.78"/><polygon class="cls-7" points="141.86 55.53 159.87 45.28 177.75 55.53 159.75 65.78 141.86 55.53"/><polygon class="cls-3" points="159.73 59.69 159.86 69.28 139.2 57.45 139.07 47.85 159.73 59.69"/><polygon class="cls-3" points="180.53 47.85 180.66 57.44 159.86 69.28 159.73 59.69 180.53 47.85"/><polygon class="cls-3" points="139.07 47.85 159.87 36.01 180.53 47.85 159.73 59.69 139.07 47.85"/><polygon class="cls-5" points="146.86 49.35 159.73 56.73 172.73 49.32 159.86 41.95 146.86 49.35"/><path class="cls-5" d="M196.44,219.75a4.09,4.09,0,0,1-2-.54L102.7,166.66a4,4,0,0,1-2-3.43l-.18-62.82-11.86-8A4,4,0,0,1,87.51,87l45-70c4-6.17,7.65-14.39,16.61-12.67C155.78,5.64,300.5,82.81,300.5,82.81A4,4,0,0,1,302.08,88l-5.2,10.28a4,4,0,0,1-5.16,1.9l-2.35-1,.19,65.79a4,4,0,0,1-2,3.46l-89.09,50.72A4,4,0,0,1,196.44,219.75ZM106.81,95a4,4,0,0,1,1.77,3.28l.18,62.63,87.69,50.25,85-48.41-.21-69.47A4,4,0,0,1,283.07,90a4.1,4.1,0,0,1,3.8-.37l4.47,1.84,1.83-3.63L195.79,32l-50.1-20.54"/><polygon class="cls-5" points="198.61 215.58 188.18 209.61 188.18 137.76 198.61 143.73 198.61 215.58"/><polygon class="cls-2" points="240.46 240.03 195.79 258.08 104.08 310.64 148.75 292.59 240.46 240.03"/><polygon class="cls-3" points="284.88 308.8 284.84 322.19 284.67 382.15 192.95 434.7 193.12 374.74 193.16 361.35 284.88 308.8"/><polygon class="cls-4" points="193.16 361.35 284.88 308.8 240.46 240.03 148.75 292.59 193.16 361.35"/><polygon class="cls-3" points="193.16 361.35 193.12 374.74 192.95 434.7 180.37 427.54 142.85 406.19 103.87 383.99 104.06 317.16 104.08 310.64 148.75 292.59 193.16 361.35"/><polygon class="cls-5" points="245.29 225.44 191.81 247.37 90.92 305.18 144.41 283.25 245.29 225.44"/><path class="cls-5" d="M144.74,283.06l95.71-54.85a5.88,5.88,0,0,1,7.84,1.89l47.46,73.76c1.56,2.42,3.54,7.92,1.31,9.77l-97.8,57a5.87,5.87,0,0,1-7.84-1.88l-43-66a5.86,5.86,0,0,0-7.14-2.22l-38.71,15.86c-2.83,1.16-7.47-3-8.84-5.74h0a5.71,5.71,0,0,1,3-7.86l47.38-19.42A5.52,5.52,0,0,0,144.74,283.06Z"/><path class="cls-5" d="M177.9,392.53l-.09,33.54-24-13.64.09-36.49c0-4.78,2.07-7.63,5.49-7.63a10.93,10.93,0,0,1,5.24,1.63C171.86,374,177.92,384.38,177.9,392.53Z"/><polygon class="cls-6" points="143.94 367.55 143.88 392.2 114.64 375.62 114.7 350.96 143.94 367.55"/><polygon class="cls-6" points="209.75 382.41 209.77 390.97 209.77 391.67 209.79 397.68 209.79 399.42 221.86 392.55 222.48 392.2 233.13 386.14 233.11 378.39 233.11 377.68 233.08 369.12 231.77 369.87 222.44 375.18 221.81 375.54 209.75 382.41"/><polygon class="cls-6" points="247.53 362.66 247.56 371.22 247.56 371.93 247.57 377.94 247.57 379.68 259.64 372.81 260.27 372.45 270.91 366.39 270.89 358.65 270.89 357.94 270.87 349.38 269.56 350.13 260.22 355.44 259.6 355.8 247.53 362.66"/><path class="cls-6" d="M155.24,337.38c0,.27,0,.53,0,.79-.38,6.2-5.1,8.59-10.84,5.32l0,0c-.31-.17-.61-.36-.91-.56-5.3-3.54-9.51-10.8-9.83-17,0-.27,0-.54,0-.81v-.23c.12-6.26,4.45-8.95,9.92-6.37.3.14.6.29.9.46l.05,0c5.91,3.37,10.71,11.48,10.79,18.21A1.69,1.69,0,0,1,155.24,337.38Z"/><polygon class="cls-3" points="247.53 274.47 247.51 281.27 247.42 305.51 229.54 315.76 229.62 291.52 229.65 284.71 247.53 274.47"/><polygon class="cls-3" points="229.65 284.71 229.62 291.52 229.54 315.76 211.53 305.51 211.62 281.38 211.65 274.46 229.65 284.71"/><polygon class="cls-7" points="247.53 274.46 229.53 264.21 211.64 274.46 229.65 284.71 247.53 274.46"/><polygon class="cls-3" points="229.67 278.62 229.54 288.22 250.2 276.38 250.33 266.79 229.67 278.62"/><polygon class="cls-3" points="208.87 266.78 208.74 276.38 229.54 288.22 229.67 278.62 208.87 266.78"/><polygon class="cls-3" points="250.33 266.79 229.53 254.94 208.87 266.78 229.67 278.62 250.33 266.79"/><polygon class="cls-5" points="242.54 268.28 229.66 275.66 216.66 268.25 229.53 260.88 242.54 268.28"/><path class="cls-5" d="M190.93,438.15l-89.08-50.71a4,4,0,0,1-2-3.46l.19-65.8-2.35,1a4.05,4.05,0,0,1-5.16-1.89L87.31,307a4,4,0,0,1,1.59-5.22s144.72-77.17,151.34-78.44c8.95-1.73,12.63,6.49,16.6,12.66l45,70a3.94,3.94,0,0,1-1.14,5.42l-11.86,8-.18,62.81a4,4,0,0,1-2,3.43L195,438.15a4.07,4.07,0,0,1-4,0ZM243.7,230.4l-50.09,20.54L96.23,306.75l1.83,3.62,4.47-1.83a4.08,4.08,0,0,1,3.79.36,4,4,0,0,1,1.79,3.32l-.2,69.48,85,48.41,87.69-50.26.17-62.63a4,4,0,0,1,1.77-3.27"/><polygon class="cls-5" points="190.78 434.52 201.22 428.55 201.22 356.69 190.78 362.66 190.78 434.52"/><path class="cls-1" d="M326.22,222.58a64.56,64.56,0,0,0,26.07-35A55.56,55.56,0,0,0,347.47,145a51.17,51.17,0,0,0-16.6-17.88,3,3,0,1,0-3,5.18c10.92,7.13,17.91,19.11,20.08,31.88,2.21,13-1.49,26.54-8.93,37.51a58.35,58.35,0,0,1-15.8,15.68,3.09,3.09,0,0,0-1.08,4.11,3,3,0,0,0,4.11,1.08Z"/><path class="cls-1" d="M343.44,455.62a98.84,98.84,0,0,0,25.71-39.76,103.58,103.58,0,0,0,5.17-46.81,97.57,97.57,0,0,0-7.05-26.31c-.63-1.49-2.83-1.82-4.1-1.08a3.07,3.07,0,0,0-1.08,4.1,92.38,92.38,0,0,1,6.63,43.76,98.69,98.69,0,0,1-13.6,42.23,88.65,88.65,0,0,1-15.92,19.62c-2.84,2.63,1.41,6.87,4.24,4.25Z"/><path class="cls-1" d="M356.91,348.56l3.42-5.66c1.1-1.81,2.12-3.72,3.32-5.47-.2.3-.13.05,0,0a3.61,3.61,0,0,1-.95.37c-.26,0-.42-.17-.26,0a3.81,3.81,0,0,0,.55.33l2.79,1.74,5.74,3.57a3,3,0,0,0,4.11-1.07,3.08,3.08,0,0,0-1.08-4.11l-6.51-4.05c-2.33-1.46-5.09-3.53-7.83-1.66a8.8,8.8,0,0,0-2.44,2.94l-2,3.3-4.08,6.75a3,3,0,0,0,1.07,4.1,3.07,3.07,0,0,0,4.11-1.07Z"/><path class="cls-1" d="M55.83,112.69a102.48,102.48,0,0,0-39.16,45,101.78,101.78,0,0,0,7.69,96.51l3.39-4.4A39.56,39.56,0,0,1,16,245.11l-2.31,5.49a54.7,54.7,0,0,1,14.41,4.76c1.62.8,4,.22,4.41-1.8l2.93-14.09a3.08,3.08,0,0,0-2.1-3.69,3,3,0,0,0-3.69,2.09L26.67,252l4.41-1.8a60.45,60.45,0,0,0-15.84-5.36,3,3,0,0,0-2.32,5.49,44.9,44.9,0,0,0,13.23,5.25c2.41.53,4.9-2.09,3.39-4.4A97.08,97.08,0,0,1,14.13,192a94.65,94.65,0,0,1,20.75-52.76,96,96,0,0,1,24-21.36c3.27-2,.26-7.23-3-5.18Z"/><path class="cls-1" d="M113.15,239.29c-12.84-4.31-26.61-8.82-36.38-18.66-8.39-8.45-13.65-21.31-8.48-32.63a29.24,29.24,0,0,1,13.53-13.83l-4.11-1.08,4,5.86a3,3,0,0,0,5.48-2.32L84.94,163.9c-.29-1.67-2.22-2.4-3.69-2.1l-12.12,2.49A3,3,0,0,0,67,168a3.08,3.08,0,0,0,3.7,2.1l12.12-2.49-3.69-2.1,2.25,12.74,5.48-2.31-4-5.86a3.09,3.09,0,0,0-4.1-1.07,35.05,35.05,0,0,0-14.58,13.84,30.73,30.73,0,0,0-3.5,20.28c2.4,14.69,14.1,25.83,26.76,32.43,7.68,4,15.9,6.79,24.08,9.54a3,3,0,0,0,1.6-5.79Z"/><path class="cls-1" d="M326.8,136.49l-.88-14.73-3.8,2.89a103.1,103.1,0,0,1,20.44,5.93c1.5.61,3.29-.66,3.69-2.09a3.07,3.07,0,0,0-2.1-3.69,103,103,0,0,0-20.43-5.94c-1.79-.32-3.93.8-3.8,2.9l.88,14.73a3.07,3.07,0,0,0,3,3,3,3,0,0,0,3-3Z"/><path class="cls-1" d="M147.22,470.37C135,465,127.38,452,129.62,438.61a30.89,30.89,0,0,1,4.14-11.1c2-3.29-3.15-6.31-5.18-3a36.09,36.09,0,0,0-5,23.53,35.54,35.54,0,0,0,20.59,27.54,3.09,3.09,0,0,0,4.1-1.08c.75-1.28.42-3.44-1.07-4.1Z"/><path class="cls-1" d="M122.19,427a102.59,102.59,0,0,0,11.67-3.16l-3.8-2.89c.55,4.15,1.22,8.28,2.07,12.38a3,3,0,0,0,3.69,2.1,3.07,3.07,0,0,0,2.09-3.69q-.58-2.82-1.06-5.64c-.16-.93-.31-1.85-.45-2.77-.06-.44-.13-.88-.19-1.33,0-.26-.08-.52-.11-.79a2.08,2.08,0,0,1,0-.26,3.18,3.18,0,0,0-1.18-2.36,2.9,2.9,0,0,0-2.62-.53,106.75,106.75,0,0,1-11.66,3.16,3,3,0,0,0-2.1,3.69,3.08,3.08,0,0,0,3.69,2.09Z"/></g></svg>