<svg width="800" height="800" viewBox="0 0 800 800" fill="none" xmlns="http://www.w3.org/2000/svg">
<path d="M600.001 333.333H433.334" stroke="#493D87" stroke-width="68" stroke-linecap="round"/>
<path d="M66.667 231.658C66.667 202.241 66.667 187.532 68.9787 175.28C79.155 121.344 121.344 79.1547 175.28 68.9784C187.532 66.6667 202.241 66.6667 231.659 66.6667C244.548 66.6667 250.992 66.6667 257.186 67.246C283.889 69.743 309.218 80.2347 329.865 97.3504C334.654 101.32 339.21 105.878 348.324 114.992L366.667 133.333C393.86 160.526 407.457 174.122 423.737 183.181C432.68 188.157 442.17 192.087 452.014 194.893C469.93 200 489.157 200 527.614 200H540.07C627.817 200 671.687 200 700.207 225.649C702.83 228.008 705.327 230.505 707.684 233.128C733.334 261.645 733.334 305.518 733.334 393.263V466.667C733.334 592.373 733.334 655.23 694.28 694.28C655.23 733.333 592.374 733.333 466.667 733.333H333.334C207.626 733.333 144.772 733.333 105.719 694.28C66.667 655.23 66.667 592.373 66.667 466.667V231.658Z" stroke="#493D87" stroke-width="68"/>
</svg>
