<svg width="800" height="800" viewBox="0 0 800 800" fill="none" xmlns="http://www.w3.org/2000/svg">
<path d="M66.6665 400C66.6665 242.865 66.6665 164.298 115.482 115.482C164.297 66.6667 242.865 66.6667 400 66.6667C557.133 66.6667 635.703 66.6667 684.516 115.482C733.333 164.298 733.333 242.865 733.333 400C733.333 557.133 733.333 635.703 684.516 684.517C635.703 733.333 557.133 733.333 400 733.333C242.865 733.333 164.297 733.333 115.482 684.517C66.6665 635.703 66.6665 557.133 66.6665 400Z" stroke="#493D87" stroke-width="80"/>
<path d="M200 526.667L238.095 566.667L333.333 466.667" stroke="#493D87" stroke-width="80" stroke-linecap="round" stroke-linejoin="round"/>
<path d="M200 293.333L238.095 333.333L333.333 233.333" stroke="#493D87" stroke-width="80" stroke-linecap="round" stroke-linejoin="round"/>
<path d="M433.333 300H600" stroke="#493D87" stroke-width="80" stroke-linecap="round"/>
<path d="M433.333 533.333H600" stroke="#493D87" stroke-width="80" stroke-linecap="round"/>
</svg>
