<svg width="800" height="800" viewBox="0 0 800 800" fill="none" xmlns="http://www.w3.org/2000/svg">
<path d="M100 295.667C100 258.33 100 239.661 107.266 225.401C113.658 212.856 123.856 202.658 136.401 196.266C150.661 189 169.33 189 206.667 189H593.333C630.67 189 649.34 189 663.6 196.266C676.143 202.658 686.343 212.856 692.733 225.401C700 239.661 700 258.33 700 295.667V722.333L589.19 666.927C580.79 662.727 576.59 660.627 572.187 659.147C568.28 657.833 564.257 656.883 560.173 656.31C555.573 655.667 550.877 655.667 541.487 655.667H206.667C169.33 655.667 150.661 655.667 136.401 648.4C123.856 642.01 113.658 631.81 107.266 619.267C100 605.007 100 586.337 100 549V295.667Z" stroke="#493D87" stroke-width="70" stroke-linecap="round" stroke-linejoin="round"/>
</svg>
