<svg width="1001" height="801" viewBox="0 0 1001 801" fill="none" xmlns="http://www.w3.org/2000/svg">
<path d="M167.395 333.75C167.395 207.885 167.395 144.953 216.21 105.851C265.026 66.75 343.593 66.75 500.728 66.75C657.861 66.75 736.432 66.75 785.245 105.851C834.061 144.953 834.061 207.885 834.061 333.75V467.25C834.061 593.114 834.061 656.049 785.245 695.148C736.432 734.25 657.861 734.25 500.728 734.25C343.593 734.25 265.026 734.25 216.21 695.148C167.395 656.049 167.395 593.114 167.395 467.25V333.75Z" stroke="#493D87" stroke-width="68"/>
<path d="M350.754 326.167C350.754 279.026 350.754 255.456 365.397 240.811C380.044 226.167 403.614 226.167 450.754 226.167H484.087C531.227 226.167 554.797 226.167 569.444 240.811C584.087 255.456 584.087 279.026 584.087 326.167C584.087 373.307 584.087 396.877 569.444 411.522C554.797 426.166 531.227 426.166 484.087 426.166H450.754C403.614 426.166 380.044 426.166 365.397 411.522C350.754 396.877 350.754 373.307 350.754 326.167Z" stroke="#493D87" stroke-width="50"/>
<path d="M584.086 284.5L637.933 262.064C658.806 253.366 669.243 249.018 676.666 253.965C684.086 258.913 684.086 270.22 684.086 292.833V359.5C684.086 382.113 684.086 393.419 676.666 398.367C669.243 403.315 658.806 398.966 637.933 390.269L584.086 367.833V284.5Z" stroke="#493D87" stroke-width="50"/>
<path d="M806 576H167.746" stroke="#493D87" stroke-width="68" stroke-linecap="round"/>
</svg>
